<svg xmlns="http://www.w3.org/2000/svg" width="261.58" height="64" xmlns:v="https://vecta.io/nano"><path d="M166.312 16.575c2.87 0 4.986 1.602 6.088 4.349h.231c1.711-2.921 3.799-4.349 6.437-4.349 4.349 0 6.987 3.653 6.987 9.538v14.336a.73.73 0 0 1-.754.754h-4.639a.73.73 0 0 1-.754-.754V26.577c0-2.812-1.102-4.377-3.16-4.377-2.262 0-3.45 1.826-3.45 5.189V40.45a.73.73 0 0 1-.754.754h-4.639a.73.73 0 0 1-.753-.754V26.577c0-2.812-1.103-4.377-3.16-4.377-2.262 0-3.45 1.826-3.45 5.189V40.45a.73.73 0 0 1-.754.754h-4.639a.73.73 0 0 1-.754-.754v-22.6a.73.73 0 0 1 .754-.753h3.827c.435 0 .717.29.812.753l.58 2.841h.231c1.044-2.638 3.044-4.117 5.712-4.117zm42.274 1.275v22.599a.73.73 0 0 1-.754.754h-3.827c-.464 0-.71-.29-.812-.754l-.58-2.841h-.231c-1.044 2.696-3.073 4.117-5.799 4.117-4.349 0-7.016-3.566-7.016-9.394V17.85a.73.73 0 0 1 .754-.753h4.639a.73.73 0 0 1 .754.753v14.018c0 2.754 1.102 4.262 3.188 4.262 2.319 0 3.537-1.739 3.537-5.073V17.85a.73.73 0 0 1 .754-.753h4.639a.73.73 0 0 1 .754.753zm15.135 6.074c-.29-1.594-1.508-2.522-3.16-2.522s-2.754.87-2.754 2.146c0 1.188.869 1.957 2.667 2.406l3.392.841c4.204 1.043 6.002 3.45 6.002 7.045 0 4.552-3.886 7.886-9.075 7.886-4.726 0-8.668-2.464-9.364-7.712-.058-.464.174-.783.638-.87l4.001-.754c.522-.102.813.116.928.754.406 2.537 1.798 3.754 3.798 3.754 1.827 0 3.103-.957 3.103-2.508 0-1.508-.898-2.327-2.783-2.783l-2.522-.609c-5.103-1.232-6.755-3.711-6.755-7.074 0-4.711 3.885-7.349 8.727-7.349 5.016 0 7.915 2.58 8.784 6.306.116.522-.058.841-.58.928l-4.175.696c-.464.08-.812-.116-.869-.58zm12.064-15.916c1.972 0 3.595 1.334 3.595 3.595 0 2.204-1.623 3.595-3.595 3.595s-3.595-1.392-3.595-3.595c0-2.261 1.623-3.595 3.595-3.595zm-3.073 32.441V17.85a.73.73 0 0 1 .754-.753h4.639a.73.73 0 0 1 .754.753v22.599a.73.73 0 0 1-.754.754h-4.639a.73.73 0 0 1-.754-.754zm28.846-6.813c-1.044 5.219-4.87 8.089-9.335 8.089-5.973 0-10.437-5.421-10.437-12.583 0-7.146 4.465-12.568 10.438-12.568 4.465 0 8.291 2.87 9.335 8.089.087.493-.145.812-.608.898l-4.204.754c-.464.087-.754-.116-.87-.609-.638-2.928-1.913-4.233-3.652-4.233-2.667 0-4.059 2.726-4.059 7.668 0 4.958 1.392 7.683 4.059 7.683 1.739 0 3.015-1.305 3.652-4.232.116-.493.406-.696.87-.609l4.204.753c.464.087.695.406.608.899z" fill="#25d1da"/><path d="M123.214 41.203h4.639a.73.73 0 0 0 .754-.753V27.385c0-3.36 1.276-5.185 3.624-5.185 2.145 0 3.334 1.564 3.334 4.374V40.45a.73.73 0 0 0 .754.753h4.639a.73.73 0 0 0 .754-.753V26.111c0-5.88-2.725-9.53-7.161-9.53-2.754 0-4.842 1.477-5.886 4.113h-.232l-.58-2.839c-.087-.463-.377-.753-.812-.753h-3.827a.73.73 0 0 0-.754.753V40.45a.73.73 0 0 0 .754.753zm-18.438-12.05c0-4.924 1.45-7.647 4.059-7.647 2.638 0 4.117 2.723 4.117 7.647s-1.479 7.647-4.117 7.647c-2.609 0-4.059-2.723-4.059-7.647zm-6.378 0c0 7.184 4.494 12.572 10.437 12.572 5.973 0 10.495-5.388 10.495-12.572s-4.523-12.572-10.495-12.572c-5.943 0-10.437 5.388-10.437 12.572zM80.684 41.116c3.014-1.048 5.364-1.477 7.944-1.477 2.609 0 4.581.377 7.48 1.477.58.232 1.015 0 1.015-.608v-3.331c0-.492-.232-.782-.667-.985-2.464-1.072-4.668-1.535-7.48-1.535a9.47 9.47 0 0 0-1.653.145l8.988-12.34c.261-.348.348-.695.348-1.101v-3.505a.73.73 0 0 0-.754-.753h-15.25a.73.73 0 0 0-.754.753v3.36a.73.73 0 0 0 .754.753h9.278l-9.915 13.875c-.261.348-.348.695-.348 1.101v3.563c0 .608.435.81 1.015.608zm-16.96-7.329c0-2.781 1.971-4.548 5.132-4.548.522 0 1.044.058 1.537.145v1.535c0 4.027-1.305 6.228-3.711 6.228-1.797 0-2.957-1.304-2.957-3.36zm.609 7.937c2.87 0 4.958-1.477 6.001-3.998h.232l.58 2.723c.087.464.377.753.812.753h3.827a.73.73 0 0 0 .754-.753v-14.57c0-6.054-3.131-9.298-9.017-9.298-4.958 0-8.321 2.259-9.393 6.344-.145.55.116.956.609 1.043l4.03.695c.493.087.783-.174.928-.695.522-1.854 1.682-2.81 3.421-2.81 2.203 0 3.276 1.419 3.276 4.374v.608c-.667-.145-1.479-.203-2.406-.203-6.494 0-10.582 3.331-10.582 8.545 0 4.316 2.783 7.242 6.929 7.242zm15.888 5.475c.291.666 1.131.666 2.435.406 3.479-.753 7.886-.811 8.639.232.725 1.072-.87 5.185-2.754 8.198-.696 1.159-.986 1.883-.406 2.433.145.174.348.232.58.261.696 0 1.595-.695 2.435-1.477 1.826-1.593 3.247-3.621 4.03-5.909.783-2.202 1.16-5.301.348-6.489-.783-1.13-3.827-1.883-6.175-1.854-2.464 0-4.842.608-6.987 1.738-1.334.724-2.55 1.535-2.145 2.462zm-64.333-1.217c.2.609.667 1.361 1.363 2.23C26.15 59.191 40.472 64 54.301 64c12.09 0 23.774-3.65 31.196-10.081 1.276-1.13 1.942-2.028 1.942-2.723 0-.29-.116-.522-.319-.753-.638-.666-1.595-.174-2.754.434-6.9 3.621-17.511 6.112-28.789 6.112-12.728 0-26.354-3.157-36.675-11.471-.986-.782-2.058-1.564-2.783-.985-.261.203-.497.639-.232 1.448zm7.596-4.779h4.639a.73.73 0 0 0 .754-.753V27.385c0-3.36 1.189-5.185 3.45-5.185 2.059 0 3.16 1.564 3.16 4.374V40.45a.73.73 0 0 0 .754.753h4.639a.73.73 0 0 0 .754-.753V27.385c0-3.36 1.188-5.185 3.45-5.185 2.058 0 3.16 1.564 3.16 4.374V40.45a.73.73 0 0 0 .754.753h4.639a.73.73 0 0 0 .754-.753V26.111c0-5.88-2.638-9.53-6.987-9.53-2.638 0-4.726 1.419-6.436 4.345h-.232c-1.102-2.752-3.218-4.345-6.088-4.345-2.667 0-4.668 1.477-5.711 4.113h-.232l-.58-2.839c-.087-.463-.377-.753-.812-.753h-3.827a.73.73 0 0 0-.754.753V40.45a.73.73 0 0 0 .754.753zM6.32 33.787c0-2.781 1.971-4.548 5.132-4.548.522 0 1.044.058 1.537.145v1.535c0 4.027-1.305 6.228-3.711 6.228-1.797 0-2.957-1.304-2.957-3.36zm.609 7.937c2.87 0 4.958-1.477 6.001-3.998h.232l.58 2.723c.087.464.377.753.812.753h3.827a.73.73 0 0 0 .754-.753v-14.57c0-6.054-3.131-9.298-9.016-9.298-4.958 0-8.321 2.259-9.393 6.344-.145.55.116.956.609 1.043l4.03.695c.493.087.783-.174.928-.695.522-1.854 1.682-2.81 3.421-2.81 2.203 0 3.276 1.419 3.276 4.374v.608c-.667-.145-1.479-.203-2.406-.203C4.088 25.937 0 29.268 0 34.482c0 4.316 2.783 7.242 6.929 7.242z" fill="#fff"/></svg>