<svg xmlns="http://www.w3.org/2000/svg" width="124.08" height="28.42" xmlns:v="https://vecta.io/nano"><defs><linearGradient id="A" gradientUnits="userSpaceOnUse" x1="12.58" y1="26.696" x2="12.58" y2="2.172"><stop offset="0" stop-color="#fa233b"/><stop offset="1" stop-color="#fb5c74"/></linearGradient><path id="B" d="M51.42 4.6h.87v.73h.07c.22-.51.67-.81 1.36-.81 1.02 0 1.58.61 1.58 1.7v2.96h-.9V6.43c0-.73-.32-1.1-.99-1.1s-1.09.44-1.09 1.16v2.67h-.9V4.6z"/></defs><g fill="#fff"><path d="M38.17 22.05h-4.74l-1.14 3.36h-2.01l4.49-12.43h2.08l4.49 12.43H39.3zm-4.25-1.55h3.76l-1.85-5.45h-.05zm17.11.38c0 2.82-1.51 4.63-3.78 4.63-1.29 0-2.32-.58-2.85-1.58h-.04v4.49H42.5V16.35h1.8v1.51h.03c.52-.97 1.62-1.6 2.89-1.6 2.29-.01 3.81 1.81 3.81 4.62zm-1.92 0c0-1.83-.95-3.04-2.39-3.04-1.42 0-2.38 1.23-2.38 3.04 0 1.83.96 3.05 2.38 3.05 1.45 0 2.39-1.2 2.39-3.05zm11.88 0c0 2.82-1.51 4.63-3.78 4.63-1.29 0-2.32-.58-2.85-1.58h-.04v4.49h-1.86V16.35h1.8v1.51h.03c.52-.97 1.62-1.6 2.89-1.6 2.29-.01 3.81 1.81 3.81 4.62zm-1.91 0c0-1.83-.95-3.04-2.39-3.04-1.42 0-2.38 1.23-2.38 3.04 0 1.83.96 3.05 2.38 3.05 1.44 0 2.39-1.2 2.39-3.05zm3.41-7.9h1.86v12.43h-1.86V12.98zm11.54 9.77c-.25 1.64-1.85 2.77-3.9 2.77-2.64 0-4.27-1.77-4.27-4.6 0-2.84 1.65-4.69 4.19-4.69 2.51 0 4.08 1.72 4.08 4.47v.64h-6.4v.11c0 1.55.97 2.57 2.44 2.57 1.03 0 1.84-.49 2.09-1.27h1.77zm-6.29-2.71h4.53c-.04-1.39-.93-2.3-2.22-2.3-1.28 0-2.21.93-2.31 2.3zm22.44 5.37v-9.15h-.06l-3.75 9.05h-1.43l-3.76-9.05h-.06v9.15h-1.76V12.98h2.23l4.02 9.81h.07l4.01-9.81h2.24v12.43h-1.75zm11.67 0h-1.78v-1.56h-.04c-.52 1.09-1.42 1.66-2.81 1.66-1.97 0-3.18-1.27-3.18-3.35v-5.81h1.86v5.45c0 1.38.65 2.11 1.94 2.11 1.34 0 2.15-.93 2.15-2.34v-5.22h1.86v9.06zm5.29-9.16c2.01 0 3.45 1.11 3.49 2.71h-1.75c-.08-.8-.76-1.29-1.79-1.29-1.01 0-1.68.47-1.68 1.17 0 .54.45.9 1.39 1.14l1.52.35c1.83.44 2.51 1.11 2.51 2.44 0 1.64-1.55 2.76-3.76 2.76-2.14 0-3.57-1.09-3.71-2.75h1.84c.13.87.83 1.34 1.96 1.34 1.11 0 1.81-.46 1.81-1.18 0-.56-.34-.86-1.29-1.1l-1.62-.4c-1.64-.4-2.46-1.23-2.46-2.49-.01-1.61 1.43-2.7 3.54-2.7zm5.14-2.29c0-.59.48-1.07 1.08-1.07s1.09.47 1.09 1.07c0 .59-.48 1.06-1.09 1.06-.59 0-1.08-.47-1.08-1.06zm.15 2.39h1.86v9.06h-1.86zm9.87 3.12c-.16-.96-.91-1.67-2.14-1.67-1.43 0-2.38 1.2-2.38 3.08 0 1.93.96 3.09 2.39 3.09 1.15 0 1.91-.58 2.12-1.63h1.79c-.21 1.9-1.73 3.18-3.93 3.18-2.58 0-4.27-1.77-4.27-4.64 0-2.82 1.69-4.64 4.25-4.64 2.33 0 3.77 1.46 3.93 3.23h-1.76zM34.65 9.17h-3.78V3.11h.94V8.3h2.84zm1.09-5.93c0-.31.25-.55.58-.55.34 0 .58.24.58.55s-.25.55-.58.55-.58-.23-.58-.55zm.14 1.36h.9v4.57h-.9zm4.02-.09c1.03 0 1.7.48 1.79 1.28h-.86c-.08-.34-.41-.55-.92-.55-.5 0-.88.24-.88.6 0 .27.23.45.73.56l.76.18c.87.2 1.28.58 1.28 1.25 0 .86-.8 1.44-1.89 1.44s-1.8-.49-1.88-1.3h.9c.11.35.45.57 1 .57.56 0 .96-.25.96-.62 0-.27-.21-.45-.67-.56l-.8-.18c-.87-.21-1.27-.6-1.27-1.28-.03-.82.71-1.39 1.75-1.39zm4.27-1.05v1.16h.99v.76h-.99v2.35c0 .48.2.69.65.69.14 0 .22-.01.34-.02v.75a2.54 2.54 0 0 1-.49.05c-1 0-1.4-.35-1.4-1.23V5.38h-.73v-.76h.73V3.46zm5.99 4.47c-.21.82-.94 1.32-1.98 1.32-1.31 0-2.11-.9-2.11-2.36s.82-2.39 2.11-2.39c1.27 0 2.04.87 2.04 2.3v.33h-3.23v.05c.03.8.5 1.31 1.22 1.31.55 0 .92-.2 1.09-.55zm-3.17-1.47h2.31c-.02-.72-.46-1.18-1.12-1.18s-1.14.47-1.19 1.18z"/><use href="#B"/><path d="M58.94 6.88c0-1.47.82-2.37 2.16-2.37 1.33 0 2.15.9 2.15 2.37 0 1.48-.82 2.38-2.15 2.38-1.34-.01-2.16-.9-2.16-2.38zm3.38 0c0-.99-.45-1.57-1.23-1.57-.79 0-1.23.58-1.23 1.57 0 1 .44 1.57 1.23 1.57s1.23-.58 1.23-1.57z"/><use href="#B" x="13.04"/></g><g fill-rule="evenodd"><path d="M25.16 9.5v-.9l-.01-.76c-.01-.55-.05-1.11-.15-1.65-.1-.55-.26-1.07-.52-1.57-.25-.49-.58-.95-.97-1.34a5.16 5.16 0 0 0-1.34-.97c-.5-.26-1.02-.42-1.57-.52s-1.1-.13-1.65-.15c-.25 0-.5-.01-.76-.01h-.9-9.42-.9l-.76.01c-.55.02-1.11.05-1.65.15-.56.1-1.07.26-1.57.52a5.16 5.16 0 0 0-1.34.97 5.16 5.16 0 0 0-.97 1.34c-.26.5-.42 1.01-.52 1.57-.1.55-.13 1.1-.15 1.65L0 8.6v.9 9.42.9l.01.76c.01.55.05 1.11.15 1.65.1.55.26 1.07.52 1.57.25.49.58.95.97 1.34a5.16 5.16 0 0 0 1.34.97 5.09 5.09 0 0 0 1.57.52c.55.1 1.1.13 1.65.15l.76.01h.9 9.42.9l.76-.01c.55-.01 1.11-.05 1.65-.15.55-.1 1.07-.26 1.57-.52.49-.25.95-.58 1.34-.97a5.16 5.16 0 0 0 .97-1.34c.26-.5.42-1.02.52-1.57s.13-1.1.15-1.65l.01-.76v-.9z" fill="url(#A)"/><path d="M17.79 5.47l-.67.11L9.64 7.1h0c-.2.04-.35.11-.47.21-.14.12-.22.29-.25.48l-.01.26v9.36c0 .22-.02.43-.17.61s-.33.24-.55.28l-.49.1c-.62.12-1.02.21-1.38.35a2.36 2.36 0 0 0-.82.52c-.41.43-.58 1.02-.52 1.56.05.47.26.91.62 1.25a1.98 1.98 0 0 0 .91.47c.37.08.77.05 1.35-.07a2.68 2.68 0 0 0 .87-.32 2.22 2.22 0 0 0 .69-.64 2.44 2.44 0 0 0 .37-.86c.07-.32.08-.61.08-.93v-8.12c0-.44.12-.55.47-.63l6.51-1.31c.4-.08.6.04.6.46v5.54c0 .22 0 .44-.15.62s-.33.24-.55.28l-.49.1c-.62.12-1.02.21-1.38.35a2.36 2.36 0 0 0-.82.52 2.02 2.02 0 0 0-.54 1.56c.05.47.27.91.64 1.25.24.22.55.39.91.46.37.08.77.05 1.35-.07.31-.06.6-.15.87-.32a2.22 2.22 0 0 0 .69-.64 2.44 2.44 0 0 0 .37-.86c.07-.32.07-.61.07-.93V6.14c0-.44-.23-.7-.63-.67z" fill="#fff"/></g></svg>