<svg xmlns="http://www.w3.org/2000/svg" width="78.037" height="23.81" xmlns:v="https://vecta.io/nano"><path d="M28.246 5.849V.103h.903v4.988h2.736v.758zM33.215.991c-.28 0-.524-.215-.524-.491s.244-.5.524-.5c.289 0 .524.224.524.5s-.235.491-.524.491zm-.397 4.858V1.688h.813v4.161zm1.682-.543l.388-.569c.298.31.876.594 1.463.594.614 0 .939-.241.939-.594 0-.414-.497-.551-1.056-.672-.741-.164-1.607-.353-1.607-1.249 0-.663.596-1.232 1.661-1.232.749 0 1.291.258 1.662.594l-.361.543c-.253-.293-.74-.508-1.291-.508s-.894.207-.894.543c0 .362.47.482 1.011.603.758.164 1.662.362 1.662 1.318 0 .715-.614 1.275-1.761 1.275-.731 0-1.373-.215-1.815-.646zm5.764.646c-.686 0-1.038-.37-1.038-1.025V2.369h-.722v-.681h.722V.551h.813v1.137h.885v.681h-.885v2.386c0 .293.144.508.424.508.19 0 .361-.078.442-.163l.208.586c-.172.155-.424.267-.849.267h0zm1.249-2.188c0-1.206.912-2.179 2.185-2.179 1.309 0 2.122.973 2.122 2.248v.189h-3.449c.063.706.605 1.292 1.481 1.292.461 0 .966-.173 1.291-.491l.379.508c-.433.405-1.047.62-1.752.62-1.3 0-2.257-.879-2.257-2.188h0zm2.185-1.542c-.876 0-1.291.672-1.336 1.24h2.664c-.018-.551-.406-1.24-1.327-1.24zm6.044 3.627V3.187c0-.689-.37-.913-.93-.913-.506 0-.966.293-1.201.603v2.972h-.813V1.688h.813v.586a2.12 2.12 0 0 1 1.544-.689c.921 0 1.4.465 1.4 1.344v2.92zm6.281.103c-1.355 0-2.203-.982-2.203-2.188 0-1.197.849-2.179 2.203-2.179 1.364 0 2.203.982 2.203 2.179 0 1.206-.84 2.188-2.203 2.188zm0-.689c.876 0 1.355-.706 1.355-1.499 0-.784-.479-1.49-1.355-1.49-.867 0-1.355.706-1.355 1.49 0 .793.488 1.499 1.355 1.499zm6.134.586V3.187c0-.689-.37-.913-.93-.913-.506 0-.966.293-1.201.603v2.972h-.813v-4.16h.813v.586a2.12 2.12 0 0 1 1.544-.689c.921 0 1.4.465 1.4 1.344v2.92h-.813z" fill="#fff"/><path d="M18.947 10.554C15.11 8.275 8.78 8.065 5.116 9.177c-.588.178-1.21-.153-1.389-.742s.154-1.21.742-1.389c4.205-1.277 11.196-1.03 15.614 1.592.529.314.703.998.389 1.526s-.998.704-1.526.389zm-.126 3.375a.93.93 0 0 1-1.277.306c-3.199-1.966-8.078-2.536-11.863-1.387a.93.93 0 0 1-1.158-.618.93.93 0 0 1 .619-1.158c4.324-1.312 9.699-.677 13.374 1.582a.93.93 0 0 1 .305 1.276h0zm-1.457 3.242a.74.74 0 0 1-1.02.247c-2.796-1.709-6.314-2.094-10.458-1.148a.742.742 0 0 1-.33-1.446c4.535-1.037 8.425-.591 11.563 1.327a.74.74 0 0 1 .246 1.02h0zM11.904 0C5.331.003.003 5.332 0 11.905S5.33 23.81 11.905 23.81 23.81 18.48 23.81 11.905 18.48 0 11.905 0z" fill="#1ed760" fill-rule="evenodd"/><g fill="#1dd15d"><path d="M33.266 14.505c-2.09-.507-2.471-.855-2.471-1.584 0-.697.665-1.172 1.615-1.172s1.869.348 2.851 1.077c.032.032.063.032.095.032s.063-.032.095-.063l1.014-1.425c.032-.063.032-.127-.032-.19-1.172-.918-2.471-1.394-3.991-1.394-2.249 0-3.833 1.362-3.833 3.294 0 2.059 1.362 2.819 3.706 3.389 1.995.475 2.344.855 2.344 1.52 0 .76-.697 1.235-1.774 1.235-1.204 0-2.217-.412-3.326-1.362-.032-.032-.063-.032-.095-.032s-.063.032-.095.063l-1.14 1.362c-.063.063-.032.127 0 .19 1.299 1.14 2.882 1.774 4.593 1.774 2.439 0 3.991-1.33 3.991-3.389.032-1.774-1.014-2.724-3.547-3.326m9.059-2.057c-1.045 0-1.9.412-2.629 1.267v-.95c0-.063-.063-.127-.127-.127H37.7c-.063 0-.127.063-.127.127v10.611c0 .063.063.127.127.127h1.869c.063 0 .127-.063.127-.127v-3.357c.697.792 1.584 1.204 2.629 1.204 1.964 0 3.928-1.489 3.928-4.371 0-2.914-1.964-4.403-3.928-4.403m1.774 4.371c0 1.457-.887 2.471-2.186 2.471-1.267 0-2.249-1.077-2.249-2.471 0-1.425.95-2.471 2.249-2.471 1.267 0 2.186 1.045 2.186 2.471m7.222-4.372c-2.502 0-4.498 1.932-4.498 4.403 0 2.439 1.964 4.371 4.466 4.371 2.534 0 4.498-1.932 4.498-4.403.032-2.439-1.932-4.371-4.466-4.371m0 6.873c-1.33 0-2.344-1.077-2.344-2.502s.982-2.471 2.312-2.471c1.362 0 2.376 1.077 2.376 2.502s-.982 2.471-2.344 2.471m9.85-6.715h-2.059v-2.09c0-.063-.063-.127-.127-.127h-1.869c-.063 0-.127.063-.127.127v2.09h-.887c-.063 0-.127.063-.127.127v1.615c0 .063.063.127.127.127h.887v4.149c0 1.679.823 2.534 2.471 2.534.665 0 1.235-.127 1.742-.443.032-.032.063-.063.063-.127v-1.52a.24.24 0 0 0-.063-.127c-.032-.032-.095-.032-.127 0-.348.19-.697.253-1.109.253-.602 0-.855-.285-.855-.887v-3.833h2.059c.063 0 .127-.063.127-.127v-1.615c.032-.063-.032-.127-.127-.127m7.16.001v-.253c0-.76.285-1.109.95-1.109a2.9 2.9 0 0 1 1.045.19c.032 0 .095 0 .127-.032s.063-.063.063-.127V9.69c0-.063-.032-.127-.095-.127-.38-.095-.855-.222-1.552-.222-1.71 0-2.629.982-2.629 2.819v.38h-.887c-.063 0-.127.063-.127.127v1.615c0 .063.063.127.127.127h.887v6.398c0 .063.063.127.127.127h1.869c.063 0 .127-.063.127-.127v-6.335h1.742l2.661 6.398c-.317.665-.602.792-1.014.792-.316 0-.665-.095-1.013-.285-.032-.032-.064-.032-.095 0-.032 0-.064.032-.095.063l-.634 1.394c-.031.063 0 .127.064.19.665.348 1.267.507 1.995.507 1.394 0 2.154-.634 2.819-2.376l3.231-8.362c.032-.032 0-.095 0-.127-.032-.032-.064-.063-.127-.063h-1.932c-.063 0-.095.032-.127.095l-1.995 5.701-2.186-5.701c-.031-.063-.063-.095-.126-.095h-3.199z"/><path d="M64.18 12.605h-1.869c-.063 0-.127.063-.127.127v8.14c0 .063.063.127.127.127h1.869c.063 0 .127-.063.127-.127v-8.14c.032-.063-.032-.127-.127-.127m-.918-3.706a1.34 1.34 0 0 0-1.33 1.33 1.34 1.34 0 0 0 1.33 1.33 1.34 1.34 0 0 0 1.33-1.33 1.34 1.34 0 0 0-1.33-1.33"/></g></svg>